<svg width="1200" height="900" viewBox="0 0 1200 900" fill="none" xmlns="http://www.w3.org/2000/svg">
<rect width="1200" height="900" rx="72" fill="#F8FAFC"/>
<rect x="110" y="140" width="980" height="620" rx="56" fill="#0F172A"/>
<rect x="145" y="175" width="910" height="530" rx="40" fill="#111827"/>
<rect x="205" y="235" width="790" height="20" rx="10" fill="#334155"/>
<rect x="205" y="285" width="112" height="112" rx="24" fill="#E2E8F0"/>
<rect x="337" y="285" width="112" height="112" rx="24" fill="#CBD5E1"/>
<rect x="469" y="285" width="112" height="112" rx="24" fill="#94A3B8"/>
<rect x="601" y="285" width="112" height="112" rx="24" fill="#38BDF8"/>
<rect x="733" y="285" width="112" height="112" rx="24" fill="#F8FAFC"/>
<rect x="865" y="285" width="112" height="112" rx="24" fill="#A78BFA"/>
<rect x="205" y="427" width="112" height="112" rx="24" fill="#475569"/>
<rect x="337" y="427" width="112" height="112" rx="24" fill="#E2E8F0"/>
<rect x="469" y="427" width="112" height="112" rx="24" fill="#F8FAFC"/>
<rect x="601" y="427" width="112" height="112" rx="24" fill="#38BDF8"/>
<rect x="733" y="427" width="112" height="112" rx="24" fill="#E2E8F0"/>
<rect x="865" y="427" width="112" height="112" rx="24" fill="#475569"/>
<rect x="205" y="569" width="176" height="112" rx="24" fill="#E2E8F0"/>
<rect x="401" y="569" width="176" height="112" rx="24" fill="#94A3B8"/>
<rect x="597" y="569" width="176" height="112" rx="24" fill="#F8FAFC"/>
<rect x="793" y="569" width="184" height="112" rx="24" fill="#38BDF8"/>
<circle cx="910" cy="195" r="10" fill="#22C55E"/>
<circle cx="946" cy="195" r="10" fill="#F59E0B"/>
<circle cx="982" cy="195" r="10" fill="#EF4444"/>
<text x="600" y="790" text-anchor="middle" fill="#0F172A" font-family="Arial, sans-serif" font-size="44" font-weight="700">Mechanical Keyboard</text>
</svg>