<svg width="900" height="700" viewBox="0 0 900 700" fill="none" xmlns="http://www.w3.org/2000/svg">
<rect width="900" height="700" rx="56" fill="#F8FAFC"/>
<path d="M120 500L600 380L740 420L260 540L120 500Z" fill="#0F172A"/>
<path d="M140 462L620 342L760 382L280 502L140 462Z" fill="#1E293B"/>
<path d="M220 398L640 292L740 320L320 426L220 398Z" fill="#334155"/>
<rect x="208" y="370" width="60" height="42" rx="10" fill="#E2E8F0" transform="rotate(-14 208 370)"/>
<rect x="278" y="352" width="60" height="42" rx="10" fill="#38BDF8" transform="rotate(-14 278 352)"/>
<rect x="348" y="334" width="60" height="42" rx="10" fill="#F8FAFC" transform="rotate(-14 348 334)"/>
<rect x="418" y="316" width="60" height="42" rx="10" fill="#A78BFA" transform="rotate(-14 418 316)"/>
<rect x="488" y="298" width="60" height="42" rx="10" fill="#E2E8F0" transform="rotate(-14 488 298)"/>
<rect x="558" y="280" width="60" height="42" rx="10" fill="#475569" transform="rotate(-14 558 280)"/>
<circle cx="680" cy="270" r="16" fill="#38BDF8"/>
<circle cx="720" cy="290" r="8" fill="#94A3B8"/>
<circle cx="754" cy="306" r="8" fill="#22C55E"/>
<text x="160" y="620" fill="#0F172A" font-family="Arial, sans-serif" font-size="34" font-weight="700">Side Profile</text>
</svg>