<svg width="900" height="700" viewBox="0 0 900 700" fill="none" xmlns="http://www.w3.org/2000/svg">
<rect width="900" height="700" rx="56" fill="#FFFFFF"/>
<rect x="96" y="86" width="708" height="528" rx="48" fill="#111827"/>
<rect x="136" y="126" width="628" height="448" rx="36" fill="#0F172A"/>
<rect x="182" y="176" width="86" height="86" rx="20" fill="#E2E8F0"/>
<rect x="286" y="176" width="86" height="86" rx="20" fill="#F8FAFC"/>
<rect x="390" y="176" width="86" height="86" rx="20" fill="#38BDF8"/>
<rect x="494" y="176" width="86" height="86" rx="20" fill="#A78BFA"/>
<rect x="598" y="176" width="86" height="86" rx="20" fill="#E2E8F0"/>
<rect x="182" y="280" width="86" height="86" rx="20" fill="#475569"/>
<rect x="286" y="280" width="86" height="86" rx="20" fill="#E2E8F0"/>
<rect x="390" y="280" width="86" height="86" rx="20" fill="#F8FAFC"/>
<rect x="494" y="280" width="86" height="86" rx="20" fill="#38BDF8"/>
<rect x="598" y="280" width="86" height="86" rx="20" fill="#475569"/>
<rect x="182" y="384" width="172" height="86" rx="20" fill="#E2E8F0"/>
<rect x="374" y="384" width="172" height="86" rx="20" fill="#38BDF8"/>
<rect x="566" y="384" width="118" height="86" rx="20" fill="#A78BFA"/>
<rect x="182" y="486" width="502" height="24" rx="12" fill="#334155"/>
<circle cx="708" cy="126" r="12" fill="#22C55E"/>
<circle cx="742" cy="126" r="12" fill="#F59E0B"/>
<circle cx="776" cy="126" r="12" fill="#EF4444"/>
<text x="450" y="652" text-anchor="middle" fill="#0F172A" font-family="Arial, sans-serif" font-size="30" font-weight="700">Premium Mechanical</text>
</svg>