<svg width="800" height="800" viewBox="0 0 800 800" fill="none" xmlns="http://www.w3.org/2000/svg">
<rect width="800" height="800" rx="64" fill="#FFFFFF"/>
<rect x="88" y="92" width="624" height="616" rx="48" fill="#0F172A"/>
<rect x="126" y="130" width="548" height="540" rx="34" fill="#1E293B"/>
<rect x="176" y="190" width="74" height="74" rx="18" fill="#E2E8F0"/>
<rect x="266" y="190" width="74" height="74" rx="18" fill="#38BDF8"/>
<rect x="356" y="190" width="74" height="74" rx="18" fill="#F8FAFC"/>
<rect x="446" y="190" width="74" height="74" rx="18" fill="#A78BFA"/>
<rect x="536" y="190" width="74" height="74" rx="18" fill="#E2E8F0"/>
<rect x="176" y="284" width="74" height="74" rx="18" fill="#475569"/>
<rect x="266" y="284" width="74" height="74" rx="18" fill="#E2E8F0"/>
<rect x="356" y="284" width="74" height="74" rx="18" fill="#94A3B8"/>
<rect x="446" y="284" width="74" height="74" rx="18" fill="#38BDF8"/>
<rect x="536" y="284" width="74" height="74" rx="18" fill="#F8FAFC"/>
<rect x="176" y="378" width="164" height="74" rx="18" fill="#E2E8F0"/>
<rect x="356" y="378" width="164" height="74" rx="18" fill="#38BDF8"/>
<rect x="536" y="378" width="74" height="74" rx="18" fill="#F8FAFC"/>
<rect x="176" y="472" width="434" height="74" rx="18" fill="#475569"/>
<rect x="176" y="566" width="208" height="74" rx="18" fill="#E2E8F0"/>
<rect x="400" y="566" width="210" height="74" rx="18" fill="#A78BFA"/>
<circle cx="600" cy="130" r="8" fill="#22C55E"/>
<circle cx="626" cy="130" r="8" fill="#F59E0B"/>
<circle cx="652" cy="130" r="8" fill="#EF4444"/>
</svg>